<!-- icon666.com - MILLIONS vector ICONS FREE --><svg id="Layer_1" enable-background="new 0 0 200 200" viewBox="0 0 200 200" xmlns="http://www.w3.org/2000/svg"><g><path d="m140.37 179.15h-80.74c-11.13 0-20.19-9.06-20.19-20.19v-66.69c0-1.51 1.22-2.73 2.73-2.73s2.73 1.22 2.73 2.73v66.69c0 8.12 6.61 14.72 14.72 14.72h80.74c8.12 0 14.72-6.61 14.72-14.72v-66.69c0-1.51 1.22-2.73 2.73-2.73s2.73 1.22 2.73 2.73v66.69c.01 11.13-9.04 20.19-20.17 20.19z"></path><path d="m190.36 107.76c-.7 0-1.4-.27-1.93-.8l-74.6-74.6c-8.05-8.05-21.15-8.05-29.2 0l-73.06 73.06c-1.07 1.07-2.79 1.07-3.86 0s-1.07-2.8 0-3.86l73.06-73.06c4.93-4.93 11.49-7.65 18.46-7.65s13.53 2.72 18.46 7.65l74.6 74.6c1.07 1.07 1.07 2.8 0 3.86-.53.54-1.23.8-1.93.8z"></path><path d="m139.59 86.35c-.7 0-1.4-.27-1.93-.8l-25.35-25.35c-1.07-1.07-1.07-2.8 0-3.86 1.07-1.07 2.79-1.07 3.86 0l25.34 25.34c1.07 1.07 1.07 2.8 0 3.86-.53.54-1.23.81-1.92.81z"></path></g></svg>